<mxfile host="www.draw.io" modified="2019-12-24T07:16:52.034Z" agent="Mozilla/5.0 (Windows NT 10.0; Win64; x64; rv:71.0) Gecko/20100101 Firefox/71.0" etag="uNyO2zyN4Es1CrSFAR2k" version="12.4.3" type="github" pages="1">
  <diagram name="Page-1" id="edf60f1a-56cd-e834-aa8a-f176f3a09ee4">
    <mxGraphModel dx="1424" dy="832" grid="1" gridSize="10" guides="1" tooltips="1" connect="1" arrows="1" fold="1" page="1" pageScale="1" pageWidth="1100" pageHeight="850" background="#ffffff" math="0" shadow="0">
      <root>
        <mxCell id="0"/>
        <mxCell id="1" parent="0"/>
        <mxCell id="_h5BoRMPPfImRbqNzBkp-1" value="PREVIEW" style="ellipse;whiteSpace=wrap;html=1;" vertex="1" parent="1">
          <mxGeometry x="180" y="130" width="120" height="80" as="geometry"/>
        </mxCell>
        <mxCell id="_h5BoRMPPfImRbqNzBkp-2" value="POINT_CLOUD" style="ellipse;whiteSpace=wrap;html=1;" vertex="1" parent="1">
          <mxGeometry x="290" y="250" width="120" height="80" as="geometry"/>
        </mxCell>
        <mxCell id="_h5BoRMPPfImRbqNzBkp-5" value="" style="endArrow=classic;html=1;entryX=0;entryY=0;entryDx=0;entryDy=0;startArrow=oval;startFill=0;" edge="1" parent="1" target="_h5BoRMPPfImRbqNzBkp-1">
          <mxGeometry width="50" height="50" relative="1" as="geometry">
            <mxPoint x="160" y="100" as="sourcePoint"/>
            <mxPoint x="170" y="40" as="targetPoint"/>
          </mxGeometry>
        </mxCell>
        <mxCell id="_h5BoRMPPfImRbqNzBkp-6" value="&lt;i&gt;Run&lt;/i&gt;" style="text;html=1;align=center;verticalAlign=middle;resizable=0;points=[];;autosize=1;" vertex="1" parent="1">
          <mxGeometry x="180" y="100" width="40" height="20" as="geometry"/>
        </mxCell>
        <mxCell id="_h5BoRMPPfImRbqNzBkp-7" value="&lt;i&gt;Press &#39;p&#39;&lt;br&gt;&lt;/i&gt;" style="text;html=1;align=center;verticalAlign=middle;resizable=0;points=[];;autosize=1;" vertex="1" parent="1">
          <mxGeometry x="330" y="220" width="60" height="20" as="geometry"/>
        </mxCell>
        <mxCell id="_h5BoRMPPfImRbqNzBkp-8" value="" style="curved=1;endArrow=classic;html=1;entryX=1;entryY=0;entryDx=0;entryDy=0;" edge="1" parent="1" source="_h5BoRMPPfImRbqNzBkp-1" target="_h5BoRMPPfImRbqNzBkp-2">
          <mxGeometry width="50" height="50" relative="1" as="geometry">
            <mxPoint x="150" y="520" as="sourcePoint"/>
            <mxPoint x="200" y="470" as="targetPoint"/>
            <Array as="points">
              <mxPoint x="420" y="140"/>
            </Array>
          </mxGeometry>
        </mxCell>
        <mxCell id="_h5BoRMPPfImRbqNzBkp-11" value="" style="curved=1;endArrow=classic;html=1;entryX=0.217;entryY=0.925;entryDx=0;entryDy=0;entryPerimeter=0;exitX=0;exitY=1;exitDx=0;exitDy=0;" edge="1" parent="1" source="_h5BoRMPPfImRbqNzBkp-2" target="_h5BoRMPPfImRbqNzBkp-1">
          <mxGeometry width="50" height="50" relative="1" as="geometry">
            <mxPoint x="129.99855000872006" y="280.29857499854666" as="sourcePoint"/>
            <mxPoint x="224.21640687119273" y="381.7157287525381" as="targetPoint"/>
            <Array as="points">
              <mxPoint x="170" y="350"/>
            </Array>
          </mxGeometry>
        </mxCell>
        <mxCell id="_h5BoRMPPfImRbqNzBkp-12" value="&lt;i&gt;Press &#39;q&#39;&lt;br&gt;&lt;/i&gt;" style="text;html=1;align=center;verticalAlign=middle;resizable=0;points=[];;autosize=1;" vertex="1" parent="1">
          <mxGeometry x="240" y="330" width="60" height="20" as="geometry"/>
        </mxCell>
        <mxCell id="_h5BoRMPPfImRbqNzBkp-13" value="" style="curved=1;endArrow=classic;html=1;exitX=0;exitY=1;exitDx=0;exitDy=0;endFill=1;entryX=0.5;entryY=0;entryDx=0;entryDy=0;" edge="1" parent="1" source="_h5BoRMPPfImRbqNzBkp-1" target="_h5BoRMPPfImRbqNzBkp-15">
          <mxGeometry width="50" height="50" relative="1" as="geometry">
            <mxPoint x="79.99855000872006" y="260.29857499854666" as="sourcePoint"/>
            <mxPoint x="150" y="330" as="targetPoint"/>
            <Array as="points">
              <mxPoint x="130" y="198"/>
              <mxPoint x="90" y="270"/>
            </Array>
          </mxGeometry>
        </mxCell>
        <mxCell id="_h5BoRMPPfImRbqNzBkp-14" value="&lt;i&gt;Press &#39;q&#39;&lt;br&gt;&lt;/i&gt;" style="text;html=1;align=center;verticalAlign=middle;resizable=0;points=[];;autosize=1;" vertex="1" parent="1">
          <mxGeometry x="50" y="210" width="60" height="20" as="geometry"/>
        </mxCell>
        <mxCell id="_h5BoRMPPfImRbqNzBkp-15" value="EXIST" style="ellipse;whiteSpace=wrap;html=1;dashed=1;" vertex="1" parent="1">
          <mxGeometry x="130" y="330" width="80" height="40" as="geometry"/>
        </mxCell>
      </root>
    </mxGraphModel>
  </diagram>
</mxfile>
